<svg width="20" height="20" viewBox="0 0 20 20" fill="none" xmlns="http://www.w3.org/2000/svg">
<path d="M17.0415 15.875L12.7087 11.5414C13.3751 10.6664 13.7501 9.5414 13.7501 8.3328C13.7501 5.3328 11.3337 2.9164 8.3337 2.9164C5.3337 2.9164 2.9165 5.3336 2.9165 8.3336C2.9165 11.3336 5.3329 13.75 8.3329 13.75C9.5415 13.75 10.6243 13.375 11.5415 12.7086L15.8751 17.0422C16.0415 17.2086 16.2501 17.2922 16.4587 17.2922C16.6673 17.2922 16.8751 17.2086 17.0423 17.0422C17.3751 16.7086 17.3751 16.2086 17.0415 15.875L17.0415 15.875ZM8.3337 12.0836C6.2501 12.0836 4.5837 10.4172 4.5837 8.3336C4.5837 6.25 6.2501 4.5836 8.3337 4.5836C10.4173 4.5836 12.0837 6.25 12.0837 8.3336C12.0837 10.4164 10.4165 12.0836 8.3337 12.0836Z" fill="white"/>
</svg>
