<svg width="48" height="48" viewBox="0 0 48 48" fill="none" xmlns="http://www.w3.org/2000/svg">
<g clip-path="url(#clip0_1_57)">
<path d="M15.1003 43.5001C33.2091 43.5001 43.1166 28.4935 43.1166 15.4838C43.1166 15.0619 43.1072 14.6307 43.0884 14.2088C45.0158 12.815 46.679 11.0886 48 9.11068C46.205 9.90929 44.2993 10.4309 42.3478 10.6576C44.4026 9.4259 45.9411 7.49103 46.6781 5.21162C44.7451 6.3572 42.6312 7.16531 40.4269 7.60131C38.9417 6.02321 36.978 4.97832 34.8394 4.62819C32.7008 4.27806 30.5064 4.64219 28.5955 5.66428C26.6846 6.68637 25.1636 8.3095 24.2677 10.2827C23.3718 12.2559 23.1509 14.4693 23.6391 16.5807C19.725 16.3843 15.8959 15.3675 12.4 13.5963C8.90405 11.8251 5.81939 9.33896 3.34594 6.29912C2.0888 8.46657 1.70411 11.0314 2.27006 13.4723C2.83601 15.9132 4.31013 18.047 6.39281 19.4401C4.82926 19.3904 3.29995 18.9694 1.93125 18.2119V18.3338C1.92985 20.6084 2.7162 22.8133 4.15662 24.5736C5.59704 26.334 7.60265 27.5412 9.8325 27.9901C8.38411 28.3863 6.86396 28.4441 5.38969 28.1588C6.01891 30.115 7.24315 31.8259 8.89154 33.0528C10.5399 34.2796 12.5302 34.9613 14.5847 35.0026C11.0968 37.7423 6.78835 39.2283 2.35313 39.2213C1.56657 39.2201 0.780798 39.1719 0 39.0769C4.50571 41.9676 9.74706 43.5029 15.1003 43.5001Z" fill="white"/>
</g>
<defs>
<clipPath id="clip0_1_57">
<rect width="48" height="48" fill="white"/>
</clipPath>
</defs>
</svg>
